<?xml version="1.0" encoding="UTF-8"?>
<svg id="Layer_1" data-name="Layer 1" xmlns="http://www.w3.org/2000/svg" viewBox="0 0 560 560">
  <defs>
    <style>
      .cls-1, .cls-2 {
        fill: #442102;
      }

      .cls-2 {
        font-family: Helvetica-Bold, Helvetica;
        font-size: 100px;
        font-weight: 700;
      }
    </style>
  </defs>
  <path class="cls-1" d="M289.63,238.49c-13.01,.24-26.68-4.46-39.57-11.76-18.03-10.22-32.95-23.81-44.18-41.31-5.85-9.13-10.07-18.95-11.7-29.75-1.69-11.23-.12-21.95,5.23-32.01,1.34-2.51,3.83-3.58,6.5-4.15,2.12-.45,4.22-.19,6.27,.44,11.19,3.45,20.42,9.88,28.21,18.52,6.63,7.36,11.89,15.69,17,24.13,5.21,8.63,10.2,17.4,16.23,25.51,4.64,6.23,9.69,12.07,15.98,16.72,4.79,3.54,10.17,6.06,15.48,8.69,5.76,2.86,11.45,5.83,16.33,10.14,.8,.71,.94,1.23,.46,2.22-2.9,6-7.89,9.26-14.08,11.01-5.28,1.49-10.69,1.75-18.17,1.61Z"/>
  <path class="cls-1" d="M295.72,309.03c.06-8.16,2.42-17.1,6.33-25.67,5.34-11.7,12.92-21.83,21.97-30.88,11.24-11.25,24.03-20.27,38.63-26.67,13.53-5.93,27.62-7.77,42.22-6.01,4.87,.59,9.47,2.04,13.47,5.04,2.55,1.91,4.42,4.35,5.8,7.22,.38,.79,.3,1.26-.37,1.85-3.45,3.07-7.29,5.54-11.36,7.66-4.2,2.18-8.42,4.31-12.66,6.43-8.99,4.49-15.95,11.31-22.06,19.13-5.87,7.51-10.74,15.68-15.62,23.83-4.83,8.06-9.63,16.12-15.47,23.52-6.02,7.63-12.96,14.22-21.6,18.84-3.88,2.07-7.88,3.86-12.19,4.83-2.5,.56-4.99,.37-7.33-.77-1.9-.93-3.42-2.19-4.4-4.2-3.54-7.21-5.36-14.8-5.36-24.15Z"/>
  <path class="cls-1" d="M223.18,353.05c-12.3-.45-23.97-3.46-35.24-8.2-14.44-6.08-27.38-14.49-38.74-25.29-7.3-6.94-13.73-14.6-18.18-23.69-3.78-7.73-6.78-15.77-7.76-24.41-.57-5.01-.3-9.97,2.28-14.46,1.06-1.84,2.61-3.39,3.94-5.08,.5-.63,.98-.6,1.67-.2,4.47,2.59,8.31,5.95,11.97,9.55,4.22,4.15,8.34,8.44,12.72,12.42,5.93,5.39,13.12,8.67,20.54,11.46,9.57,3.61,19.53,5.79,29.46,8.09,9.74,2.25,19.47,4.56,28.78,8.33,11.63,4.72,21.53,11.69,28.89,22.01,2.69,3.77,3.56,7.8,1.65,12.18-.22,.51-.57,1.01-.96,1.41-8.67,8.91-19.3,13.8-31.57,15.22-3.13,.36-6.29,.44-9.43,.65Z"/>
  <path class="cls-1" d="M240.43,99.71c11.39,.09,22.44,2.98,32.95,7.85,23.52,10.89,41.83,27.53,54.56,50.18,6.75,12.02,10.13,24.98,10.3,38.74,.04,2.89-.3,5.87-1.03,8.67-1.64,6.35-6.17,9.15-12.69,8.3-5.24-.68-9.99-2.76-14.61-5.16-7.41-3.83-14.36-8.41-20.92-13.52-4.2-3.27-7.44-7.56-10.54-11.9-5.19-7.25-9.35-15.11-13.64-22.9-4.36-7.93-8.8-15.8-14.53-22.86-4.3-5.3-9.34-9.74-15-13.59-4.09-2.79-8.65-4.5-13.04-6.62-2.49-1.2-4.94-2.5-7.32-3.9-1.5-.88-2.77-2.08-3.35-3.84-.29-.88-.15-1.43,.74-1.97,8.56-5.21,17.89-7.48,28.12-7.51Z"/>
  <path class="cls-1" d="M344.24,358c-11.89,0-21.13-2.3-29.65-7.41-1.05-.63-1.27-1.35-.76-2.24,.56-.98,1.19-2.07,2.08-2.7,2-1.42,4.15-2.63,6.29-3.83,1.27-.71,2.63-1.28,3.99-1.81,13.03-5.11,23.16-13.81,30.67-25.45,4.81-7.46,9.08-15.27,13.49-22.98,3.65-6.38,7.26-12.78,11.7-18.67,4.01-5.32,8.58-10.02,14.19-13.73,7.33-4.85,14.6-9.74,22.86-12.91,3.32-1.28,6.72-2.21,10.34-2.07,4.78,.19,7.9,2.63,9.55,7.05,1.35,3.6,1.56,7.36,1.45,11.15-.52,18.15-6.79,34.28-17.4,48.81-13.73,18.79-31.28,32.75-53.01,41.27-8.92,3.5-18.17,5.52-25.79,5.53Z"/>
  <path class="cls-1" d="M174.98,223.78c18.89,.36,35.15,5.38,50.45,13.69,15.09,8.19,28.02,18.96,38.16,32.9,6.32,8.69,10.94,18.18,12.82,28.86,1.23,6.96,1,13.87-.61,20.74-.21,.89-.66,1.2-1.49,1.23-1.81,.05-3.34-.73-4.61-1.85-2.19-1.93-4.26-4-6.31-6.08-1.16-1.17-2.2-2.47-3.3-3.71-7.53-8.4-16.82-14.05-27.42-17.7-8.1-2.79-16.49-4.41-24.88-6.02-8.09-1.55-16.17-3.09-24.06-5.53-7.87-2.44-15.1-6.01-21.51-11.29-6.46-5.31-13-10.51-18.2-17.14-2.3-2.92-4.26-6.04-4.99-9.78-.73-3.72,.4-6.84,3.14-9.39,2.38-2.22,5.26-3.61,8.29-4.66,8.37-2.88,17.04-4.05,24.51-4.28Z"/>
  <text class="cls-2" transform="translate(156.25 471.66)"><tspan x="0" y="0">bean</tspan></text>
</svg>