<?xml version="1.0" encoding="UTF-8"?>
<svg id="Layer_1" data-name="Layer 1" xmlns="http://www.w3.org/2000/svg" viewBox="0 0 560 560">
  <defs>
    <style>
      .cls-1 {
        fill: #f7931e;
      }

      .cls-2 {
        fill: #442102;
      }
    </style>
  </defs>
  <path class="cls-2" d="M161.12,230.86c-8.38-9.02-14.51-19.4-19.12-30.72-5.91-14.51-9.11-29.61-9.51-45.27-.26-10.07,.61-20.03,3.89-29.61,2.79-8.14,6.36-15.94,11.77-22.75,3.14-3.95,6.84-7.27,11.84-8.62,2.05-.55,4.25-.55,6.37-.81,.8-.1,1.12,.27,1.33,1.04,1.33,4.99,1.67,10.08,1.71,15.22,.05,5.93-.07,11.86,.21,17.77,.38,8,3.15,15.41,6.42,22.63,4.21,9.32,9.71,17.91,15.11,26.55,5.3,8.48,10.55,16.99,14.46,26.24,4.89,11.56,6.95,23.49,4.86,35.99-.76,4.56-2.99,8.03-7.45,9.78-.52,.2-1.12,.31-1.68,.32-12.43,.17-23.41-3.89-33.09-11.56-2.47-1.96-4.76-4.13-7.13-6.21Z"/>
  <path class="cls-2" d="M389.44,105.38c13.1,13.61,21.05,28.66,26,45.36,4.88,16.46,6.41,33.22,3.72,50.25-1.68,10.62-5.12,20.59-11.35,29.47-4.05,5.79-9.1,10.51-15.1,14.24-.78,.48-1.31,.38-1.92-.19-1.32-1.24-1.85-2.88-1.95-4.57-.18-2.91-.18-5.84-.17-8.76,0-1.65,.2-3.3,.29-4.96,.62-11.26-1.96-21.83-6.87-31.9-3.76-7.7-8.54-14.78-13.33-21.85-4.62-6.81-9.25-13.62-13.1-20.92-3.84-7.29-6.42-14.92-7.23-23.2-.81-8.32-1.75-16.62-.75-24.99,.44-3.69,1.26-7.29,3.38-10.44,2.12-3.15,5.12-4.55,8.87-4.42,3.26,.12,6.27,1.16,9.16,2.57,7.96,3.88,14.91,9.18,20.36,14.31Z"/>
  <g>
    <path class="cls-2" d="M240.68,252.77c-3.27-.19-6.32,.3-7.25-.42-.56-.43,1.21-4.38,1.85-9.82-2.52,5.8-4.74,7.93-6.82,9.24-3.43-.33-4.6-.45-5-.55,13.68-21.76-7.73-50.78-17.31-69.71-13.28-26.25-17.28-41-15.94-70.34,7.39-.04,10.62-.13,16.46-.37-2.07,15.52-5.41,33.99,2.05,48.71-.61-4.9-.08-8.05,.89-10.02,1.19-2.43,3.33-3.44,5.84-3.48,4.53-.07,7.47,2.39,13.64,12.42,8.9,14.47,17.17,29.8,23.38,45.17,5.98,14.82,7.81,25.29,2.49,38.69-4.15,10.43-9.08,10.79-14.28,10.48Zm2.63-46.43c-3.12-8.04-6.75-15.88-9.95-21.78-6.08-11.18-10.48-16.42-13.78-16.45-3.34-.03-3.6,5-.1,15.76,1.88,5.72,4.97,13.42,8.29,21.57,3.9,9.6,6.21,15.16,7.77,18.46,1.56,3.3,3.4,10.23,6.07,10.2,2.31-.03,4.12-6.74,5.2-9.79,1.08-3.05,.4-7.92-3.49-17.97Z"/>
    <path class="cls-2" d="M295.87,220.47c.89,3.32,1.75,11.53-.56,18.66-3.63,11.32-7.7,12.91-13.33,12.51-4.65-.33-9.39-.77-10.64-9.49-2.03-14.17-6.04-26.19-11.59-39.59-6.48-15.64-15.23-32.26-17.63-49.09-1.38-9.69,1.96-12.39,5.7-12.45,2.22-.04,4.25,.9,6.81,3.54,2.56,2.63,5.78,7.33,10.85,15.37,5.5,8.71,10.71,17.73,15.56,26.72,3.21,5.95,7.47,15.47,10.96,23.36q-9,0-19.6-.29c4.21,9.51,2.57,10.03,4.6,15.29,1.23,3.27,4.32,5.03,6,5,1.78-.03,8.12,4.97,7.05-3.46,.22-2.45-.17-4.61-.35-6.29,2.95,.1,3.51,.1,6.17,.21Zm-19.68-30.83c-4.51-8.94-8.9-16.01-12.33-20.6s-5.78-6.74-7.4-6.76c-1.76-.02-2.07,2.22-.71,7,1.36,4.79,4.14,11.58,7.75,19.84,5.58,.2,8.23,.31,12.69,.52Z"/>
    <path class="cls-2" d="M270.4,153.35c-2.26-9.5,1.79-11.81,8.4-11.62,4.3,.12,8.62,1.51,13.48,5.5,8.78,7.21,14.31,18.67,20.04,28.53,7.55,14.36,15.89,29.75,20.73,45.36,.35,1.51,1.4,7.95,1.29,11.43-.08,2.63-.54,6.72-.45,8.46,.09,1.74,.4,3.12,.97,4.11-.35,2.07-.52,3.05-.74,4.32-4.96,.47-7.47,.7-12.29,1.07-.04-1.56,.2-4.05,.5-6.48,.31-2.43,.73-5.48,.98-8.02-2.07,4.61-4.89,10.43-7.36,13.38-2.91,3.48-5.38,3.25-8.02,3.34-3.38,.11-5.97,.37-6.51-5.72-.54-6.1-.6-19.93-1.88-24.94-1.66-6.5-4.9-14.92-5.21-22.98-.16-4.38,1.42-6.57,4.53-8.19,1.1-.55,1.67-.83,2.82-1.4,1.55-.78,2.5-1.78,2.75-2.98,.5-2.08-.41-5.37-2.79-9.82-2.9-5.41-5.47-9.03-7.69-11.01s-4.43-2.95-6.61-2.98c-2.44-.04-3.14,1.79-2.01,5.68,.84,2.89,2.57,6.91,5,12.03-3.72-.08-5.42-.13-8.46-.25-4.21-8.61-9.02-17.45-11.47-26.81Zm41.6,74.65c.83,1.67,1.65,2.13,3,2,2.15-.21,3.28,.26,4.63-3.85q.37-1.15-.63-8.15c-1.19-2.7-1.65-7.79-3.65-12.4-.16,1.23-.46,2.13-.87,2.79-.41,.66-1.1,1.25-2.06,1.76-.77,.41-1.15,.61-1.91,1.01-1.79,.87-2.08,.78-2.51,1.84-.72,1.8-.3,6.09,1,10,1,3,2,3,3,5Z"/>
    <path class="cls-2" d="M334.36,164.03c-3.13-.03-2.83,4.46,1.33,14.23,2.21,5.16,5.63,11.94,8.69,19.32,8.36,19.21,11.24,28.39,8.29,49.91-4.15,.48-6.36,.72-10.83,1.19,6.03-40.42-20.16-68.48-35.25-104.33,4.24,.11,6.34,.17,10.29,.29,1.2,4.3,2.76,7.32,6.36,13.94-1.84-5.82-2.13-9.18-1.76-11.08,.68-3.38,3.17-4.37,5.89-4.26,3.4,.13,8.06,3.81,10.7,5.94,11.22,8.99,19.44,24.07,26.64,36.37,11.23,19.17,17.14,34.27,14.49,56.6-.09,1.05-3.63,1.94-12.98,3.71,3.13-25.11-1.87-33.74-12.07-56.7-3.35-6.61-6.71-11.9-9.25-15.49-4.64-6.55-7.98-9.6-10.53-9.62Z"/>
  </g>
  <path class="cls-1" d="M353.24,222.56c1.89-.97,3.72-1.11,5.79-.81s3.95,0,5.9-.3c3.76-.56,7.45-1.57,11.01-2.91,7.11-2.68,13.65-6.57,20.08-10.57,3.87-2.41,7.72-4.86,11.66-7.16,1.66-.98,.16-3.57-1.51-2.59-13.17,7.72-25.78,17.63-41.21,20.21-1.12,.19-2.25,.35-3.38,.43s-2.27-.13-3.44-.25c-2.24-.23-4.44,.34-6.43,1.36-1.72,.88-.2,3.47,1.51,2.59h0Z"/>
  <path class="cls-1" d="M279.73,230.54c1.93,0,1.93-3,0-3s-1.93,3,0,3h0Z"/>
  <path class="cls-1" d="M206.4,214.39c1.93,0,1.93-3,0-3s-1.93,3,0,3h0Z"/>
  <path class="cls-1" d="M302.96,254.27c6.44-.09,12.89-.18,19.32-.54,6.01-.34,11.92-1.09,17.86-2,3.21-.49,6.41-.1,9.63-.21s6.48-.33,9.71-.65c5.89-.58,11.74-1.49,17.55-2.58,6.47-1.21,12.9-2.61,19.37-3.84,1.89-.36,1.09-3.25-.8-2.89-11.43,2.18-22.78,4.87-34.36,6.14-3.17,.35-6.36,.6-9.54,.75s-6.51-.16-9.75,.09c-2.86,.22-5.68,.85-8.52,1.21s-5.97,.65-8.97,.85c-7.15,.49-14.33,.58-21.49,.68-1.93,.03-1.93,3.03,0,3h0Z"/>
  <path class="cls-1" d="M187.26,249.03c1.93,0,1.93-3,0-3s-1.93,3,0,3h0Z"/>
  <path class="cls-2" d="M184.2,475.98c-8.38-9.02-14.51-19.4-19.12-30.72-5.91-14.51-9.11-29.61-9.51-45.27-.26-10.07,.61-20.03,3.89-29.61,2.79-8.14,6.36-15.94,11.77-22.75,3.14-3.95,6.84-7.27,11.84-8.62,2.05-.55,4.25-.55,6.37-.81,.8-.1,1.12,.27,1.33,1.04,1.33,4.99,1.67,10.08,1.71,15.22,.05,5.93-.07,11.86,.21,17.77,.38,8,3.15,15.41,6.42,22.63,4.21,9.32,9.71,17.91,15.11,26.55,5.3,8.48,10.55,16.99,14.46,26.24,4.89,11.56,6.95,23.49,4.86,35.99-.76,4.56-2.99,8.03-7.45,9.78-.52,.2-1.12,.31-1.68,.32-12.43,.17-23.41-3.89-33.09-11.56-2.47-1.96-4.76-4.13-7.13-6.21Z"/>
  <path class="cls-2" d="M412.51,350.49c13.1,13.61,21.05,28.66,26,45.36,4.88,16.46,6.41,33.22,3.72,50.25-1.68,10.62-5.12,20.59-11.35,29.47-4.05,5.79-9.1,10.51-15.1,14.24-.78,.48-1.31,.38-1.92-.19-1.32-1.24-1.85-2.88-1.95-4.57-.18-2.91-.18-5.84-.17-8.76,0-1.65,.2-3.3,.29-4.96,.62-11.26-1.96-21.83-6.87-31.9-3.76-7.7-8.54-14.78-13.33-21.85-4.62-6.81-9.25-13.62-13.1-20.92-3.84-7.29-6.42-14.92-7.23-23.2-.81-8.32-1.75-16.62-.75-24.99,.44-3.69,1.26-7.29,3.38-10.44,2.12-3.15,5.12-4.55,8.87-4.42,3.26,.12,6.27,1.16,9.16,2.57,7.96,3.88,14.91,9.18,20.36,14.31Z"/>
  <g>
    <path class="cls-2" d="M255.87,496.88c-3.67-.22-7.09,.34-8.13-.47-.04-.03-.07-.09-.09-.16-.51-1.84-2.67-2.63-4.16-1.43-.16,.13-.33,.26-.49,.37-.51,.38-1.15,.54-1.78,.48-.27-.03-.53-.05-.77-.07-1.8-.17-2.87-2.08-2.09-3.72,11.46-23.97-8.06-55.75-20.36-74.88-18-28-19.99-45.14-18.83-76.4,.05-1.4,1.19-2.51,2.59-2.52,5.36-.04,8.68-.12,12.87-.27,1.62-.06,2.91,1.35,2.69,2.96-1.75,12.71-3.82,26.89-1.26,39.79,.5,2.5,3.84,2.88,4.95,.58,.01-.02,.02-.04,.03-.07,1.34-2.73,3.74-3.86,6.54-3.9,5.08-.08,8.38,2.68,15.29,13.92,9.98,16.23,19.26,33.41,26.22,50.66,6.71,16.62,8.76,28.36,2.79,43.39-4.65,11.7-10.18,12.1-16.02,11.76Zm3.13-51.88c-3.5-9.02-7.75-17.99-11.34-24.61-6.81-12.54-11.75-18.41-15.45-18.45-3.75-.04-4.04,5.61-.11,17.67,2.11,6.42,8.19,16.24,11.91,25.38,4.37,10.76,5.25,16.3,7,20,1.75,3.7,5.02,7.04,8,7,2.59-.03,4-3.37,4-7,0-5,.37-8.73-4-20Z"/>
    <path class="cls-2" d="M311.95,461.55c1.7,.06,3.13,1.31,3.38,2.99,.67,4.52,.86,11.67-1.2,18.04-4.07,12.7-8.64,14.48-14.95,14.03-5.21-.37-10.53-.86-11.93-10.64-2.27-15.89-6.77-29.37-13-44.4-7.27-17.54-17.08-36.18-19.77-55.05-1.55-10.86,2.2-13.9,6.39-13.96,2.49-.04,4.76,1.01,7.64,3.96,2.87,2.95,6.48,8.23,12.16,17.23,6.16,9.77,12.02,19.88,17.45,29.96,2.94,5.45,6.67,13.59,10.08,21.22,1.05,2.34-.68,4.98-3.25,4.98-4.01,0-6.14-.05-11.11-.18-2.49-.07-4.26,2.4-3.42,4.75,2.2,6.15,1.31,7.42,3.17,12.25,1.38,3.67,4.85,5.64,6.73,5.61,1.97-.04,8.95,5.45,7.94-3.57-.02-.2-.03-.42-.01-.62,.07-1.01,.06-1.97,0-2.87-.13-2.08,1.57-3.81,3.65-3.74,.02,0,.04,0,.06,0Zm-25.39-34.73c2.74,.11,4.56-2.81,3.26-5.22-4.03-7.45-7.85-13.44-10.96-17.61-3.84-5.15-6.49-7.56-8.3-7.58-1.97-.02-2.32,2.49-.8,7.85,1.41,4.97,4.18,11.85,7.8,20.2,.54,1.25,1.76,2.08,3.12,2.14,2.28,.08,4.11,.16,5.87,.23Z"/>
    <path class="cls-2" d="M287.2,387.39c-2.53-10.65,2-13.24,9.42-13.03,4.83,.14,9.66,1.69,15.12,6.17,9.84,8.08,16.05,20.94,22.47,32,8.46,16.09,17.8,33.33,23.23,50.82,.01,.03,.02,.06,.03,.09,.41,1.77,1.56,8.91,1.44,12.77-.09,2.94-.6,7.54-.5,9.48,.09,1.75,.38,3.17,.9,4.25,.11,.24,.16,.5,.12,.76-.26,1.57-.43,2.55-.6,3.53-.09,.54-.53,.94-1.07,.99-4.52,.43-7.25,.67-11.55,1.01-.72,.06-1.33-.53-1.31-1.25,.06-1.67,.29-3.81,.55-5.92,.07-.53,.14-1.08,.21-1.66,.17-1.34-1.66-1.91-2.27-.7-1.67,3.28-3.45,6.39-5.1,8.36-3.27,3.9-6.03,3.64-9,3.74-3.79,.13-6.69,.42-7.3-6.42-.6-6.84-.67-22.35-2.11-27.97-1.86-7.29-5.49-16.73-5.84-25.77-.18-4.92,1.6-7.37,5.07-9.18,1.24-.62,1.87-.93,3.16-1.56,1.74-.88,2.8-1.99,3.09-3.34,.56-2.34-.46-6.03-3.13-11.01-3.25-6.07-6.13-10.13-8.63-12.34s-4.97-3.3-7.41-3.34c-2.74-.05-3.52,2.01-2.25,6.37,.84,2.9,2.48,6.82,4.78,11.73,.38,.81-.23,1.74-1.12,1.72-2.65-.06-4.38-.12-6.81-.21-.44-.02-.84-.27-1.04-.67-4.65-9.45-9.86-19.16-12.55-29.42Zm46.65,83.71c.93,1.87,1.85,2.39,3.36,2.24,2.41-.24,3.68,.3,5.19-4.32q.42-1.28-.68-8.98c-.01-.1-.04-.19-.08-.29-1-2.38-1.55-6.32-2.79-10.35-.31-1.02-2.3-6.32-2.85-5.41l.62,5.11c-.46,.74-1.24,1.4-2.31,1.98-.86,.46-1.29,.69-2.14,1.13-2.01,.98-2.34,.87-2.81,2.06-.8,2.02-.34,6.83,1.12,11.21,1.12,3.36,2.24,3.36,3.36,5.61Z"/>
    <path class="cls-2" d="M356.92,399.37c-3.51-.03-3.18,5,1.49,15.96,2.48,5.79,6.31,13.39,9.75,21.66,9.16,21.05,12.46,31.37,9.51,54.37-.12,.94-.88,1.68-1.82,1.79-2.89,.33-5.02,.57-7.92,.87-1.31,.14-2.43-.97-2.27-2.28,5.18-42.85-21.85-73.43-38.6-111.47-.61-1.38,.45-2.93,1.96-2.88,2.39,.07,4.29,.12,6.8,.19,.88,.03,1.65,.61,1.91,1.44,.24,.78,.5,1.53,.79,2.28,.75,1.96,3.55,1.67,3.94-.39,0-.02,0-.04,.01-.06,.76-3.79,3.56-4.9,6.6-4.78,3.81,.15,9.03,4.28,12,6.66,12.58,10.08,21.8,26.99,29.88,40.78,12.59,21.5,19.23,38.43,16.25,63.47-.09,1.07-3.36,1.99-11.78,3.63-1.36,.26-2.6-.87-2.45-2.25,2.8-26.05-2.8-35.92-13.86-60.8-3.76-7.41-7.52-13.35-10.37-17.37-5.2-7.34-8.94-10.76-11.8-10.79Z"/>
  </g>
</svg>