<?xml version="1.0" encoding="UTF-8"?>
<svg id="Layer_1" data-name="Layer 1" xmlns="http://www.w3.org/2000/svg" viewBox="0 0 560 560">
  <defs>
    <style>
      .cls-1 {
        fill: #442102;
      }

      .cls-2 {
        fill: #f5e5a9;
        stroke: #442102;
        stroke-miterlimit: 10;
        stroke-width: 2px;
      }
    </style>
  </defs>
  <path class="cls-1" d="M161.91,232.96c-8.38-9.02-14.51-19.4-19.12-30.72-5.91-14.51-9.11-29.61-9.51-45.27-.26-10.07,.61-20.03,3.89-29.61,2.79-8.14,6.36-15.94,11.77-22.75,3.14-3.95,6.84-7.27,11.84-8.62,2.05-.55,4.25-.55,6.37-.81,.8-.1,1.12,.27,1.33,1.04,1.33,4.99,1.67,10.08,1.71,15.22,.05,5.93-.07,11.86,.21,17.77,.38,8,3.15,15.41,6.42,22.63,4.21,9.32,9.71,17.91,15.11,26.55,5.3,8.48,10.55,16.99,14.46,26.24,4.89,11.56,6.95,23.49,4.86,35.99-.76,4.56-2.99,8.03-7.45,9.78-.52,.2-1.12,.31-1.68,.32-12.43,.17-23.41-3.89-33.09-11.56-2.47-1.96-4.76-4.13-7.13-6.21Z"/>
  <path class="cls-1" d="M395.23,104.48c13.1,13.61,21.05,28.66,26,45.36,4.88,16.46,6.41,33.22,3.72,50.25-1.68,10.62-5.12,20.59-11.35,29.47-4.05,5.79-9.1,10.51-15.1,14.24-.78,.48-1.31,.38-1.92-.19-1.32-1.24-1.85-2.88-1.95-4.57-.18-2.91-.18-5.84-.17-8.76,0-1.65,.2-3.3,.29-4.96,.62-11.26-1.96-21.83-6.87-31.9-3.76-7.7-8.54-14.78-13.33-21.85-4.62-6.81-9.25-13.62-13.1-20.92-3.84-7.29-6.42-14.92-7.23-23.2-.81-8.32-1.75-16.62-.75-24.99,.44-3.69,1.26-7.29,3.38-10.44,2.12-3.15,5.12-4.55,8.87-4.42,3.26,.12,6.27,1.16,9.16,2.57,7.96,3.88,14.91,9.18,20.36,14.31Z"/>
  <g>
    <path class="cls-2" d="M235.58,253.86c-3.67-.22-7.09,.34-8.13-.47-.04-.03-.07-.09-.09-.16-.51-1.84-2.67-2.63-4.16-1.43-.16,.13-.33,.26-.49,.37-.51,.38-1.15,.54-1.78,.48-.27-.03-.53-.05-.77-.07-1.8-.17-2.87-2.08-2.09-3.72,11.46-23.97-8.06-55.75-20.36-74.88-18-28-19.99-45.14-18.83-76.4,.05-1.4,1.19-2.51,2.59-2.52,5.36-.04,8.68-.12,12.87-.27,1.62-.06,2.91,1.35,2.69,2.96-1.75,12.71-3.82,26.89-1.26,39.79,.5,2.5,3.84,2.88,4.95,.58,.01-.02,.02-.04,.03-.07,1.34-2.73,3.74-3.86,6.54-3.9,5.08-.08,8.38,2.68,15.29,13.92,9.98,16.23,19.26,33.41,26.22,50.66,6.71,16.62,8.76,28.36,2.79,43.39-4.65,11.7-10.18,12.1-16.02,11.76Zm3.13-51.88c-3.5-9.02-7.75-17.99-11.34-24.61-6.81-12.54-11.75-18.41-15.45-18.45-3.75-.04-4.04,5.61-.11,17.67,2.11,6.42,8.19,16.24,11.91,25.38,4.37,10.76,5.25,16.3,7,20,1.75,3.7,5.02,7.04,8,7,2.59-.03,4-3.37,4-7,0-5,.37-8.73-4-20Z"/>
    <path class="cls-2" d="M291.67,218.53c1.7,.06,3.13,1.31,3.38,2.99,.67,4.52,.86,11.67-1.2,18.04-4.07,12.7-8.64,14.48-14.95,14.03-5.21-.37-10.53-.86-11.93-10.64-2.27-15.89-6.77-29.37-13-44.4-7.27-17.54-17.08-36.18-19.77-55.05-1.55-10.86,2.2-13.9,6.39-13.96,2.49-.04,4.76,1.01,7.64,3.96,2.87,2.95,6.48,8.23,12.16,17.23,6.16,9.77,12.02,19.88,17.45,29.96,2.94,5.45,6.52,8.38,9.16,16.3,1,3,0,9-2.33,9.9-3.74,1.44-6.14-.05-11.11-.18-2.49-.07-3.97,1.82-3.56,4.28,1,6,1.45,7.89,3.31,12.72,1.38,3.67,3.69,6.28,6.69,7.28,1.87,.62,9.01,4.01,8-5-.02-.2,.02-2.82-.04-3.73-.13-2.08,1.57-3.81,3.65-3.74,.02,0,.04,0,.06,0Zm-25.39-34.73c2.74,.11,4.56-2.81,3.26-5.22-4.03-7.45-7.85-13.44-10.96-17.61-3.84-5.15-6.49-7.56-8.3-7.58-1.97-.02-2.32,2.49-.8,7.85,1.41,4.97,4.18,11.85,7.8,20.2,.54,1.25,1.76,2.08,3.12,2.14,2.28,.08,4.11,.16,5.87,.23Z"/>
    <path class="cls-2" d="M266.91,144.37c-2.53-10.65,2-13.24,9.42-13.03,4.83,.14,9.66,1.69,15.12,6.17,9.84,8.08,16.05,20.94,22.47,32,8.46,16.09,14.65,28,20.08,45.48,.01,.03,4,12,4,18,0,2.42,0,7.74,.11,9.69,.09,1.75,.38,3.17,.9,4.25,.11,.24,.16,.5,.12,.76-.26,1.57-.43,2.55-.6,3.53-.09,.54-.53,.94-1.07,.99-4.52,.43-7.25,.67-11.55,1.01-.72,.06-1.33-.53-1.31-1.25,.06-1.67,.29-3.81,.55-5.92,.07-.53,.14-1.08,.21-1.66,.17-1.34-1.66-1.91-2.27-.7-1.67,3.28-3.45,6.39-5.1,8.36-3.27,3.9-6.03,3.64-9,3.74-3.79,.13-6.69,.42-7.3-6.42-.6-6.84-.67-22.35-2.11-27.97-1.86-7.29-5.49-16.73-5.84-25.77-.18-4.92,1.6-7.37,5.07-9.18,1.24-.62,1.87-.93,3.16-1.56,1.74-.88,2.8-1.99,3.09-3.34,.56-2.34-.46-6.03-3.13-11.01-3.25-6.07-6.13-10.13-8.63-12.34s-4.97-3.3-7.41-3.34c-2.74-.05-3.52,2.01-2.25,6.37,.84,2.9,2.48,6.82,4.78,11.73,.38,.81-.23,1.74-1.12,1.72-2.65-.06-4.38-.12-6.81-.21-.44-.02-.84-.27-1.04-.67-4.65-9.45-9.86-19.16-12.55-29.42Zm50.01,85.95c2.41-.24,4.57-.71,6.08-5.33,.42-1.28,1.44-8.39-3-18-.45-.97-4.45-11.91-5-11,0,0-4.25,.37-6,3-2,3-2.39,6.02-2,10,.5,5.07,2,9,4,13,1.59,3.17,4.4,8.48,5.92,8.33Z"/>
    <path class="cls-2" d="M336.63,156.35c-3.51-.03-3.18,5,1.49,15.96,2.48,5.79,6.31,13.39,9.75,21.66,9.16,21.05,12.46,31.37,9.51,54.37-.12,.94-.88,1.68-1.82,1.79-2.89,.33-5.02,.57-7.92,.87-1.31,.14-2.43-.97-2.27-2.28,5.18-42.85-21.85-73.43-38.6-111.47-.61-1.38,.45-2.93,1.96-2.88,2.39,.07,4.29,.12,6.8,.19,.88,.03,1.65,.61,1.91,1.44,.24,.78,.5,1.53,.79,2.28,.75,1.96,3.55,1.67,3.94-.39,0-.02,0-.04,.01-.06,.76-3.79,3.56-4.9,6.6-4.78,3.81,.15,9.03,4.28,12,6.66,12.58,10.08,21.8,26.99,29.88,40.78,12.59,21.5,19.23,38.43,16.25,63.47-.09,1.07-3.36,1.99-11.78,3.63-1.36,.26-2.6-.87-2.45-2.25,2.8-26.05-2.8-35.92-13.86-60.8-3.76-7.41-7.52-13.35-10.37-17.37-5.2-7.34-8.94-10.76-11.8-10.79Z"/>
  </g>
  <path class="cls-1" d="M164.23,447.72c-8.38-9.02-14.51-19.4-19.12-30.72-5.91-14.51-9.11-29.61-9.51-45.27-.26-10.07,.61-20.03,3.89-29.61,2.79-8.14,6.36-15.94,11.77-22.75,3.14-3.95,6.84-7.27,11.84-8.62,2.05-.55,4.25-.55,6.37-.81,.8-.1,1.12,.27,1.33,1.04,1.33,4.99,1.67,10.08,1.71,15.22,.05,5.93-.07,11.86,.21,17.77,.38,8,3.15,15.41,6.42,22.63,4.21,9.32,9.71,17.91,15.11,26.55,5.3,8.48,10.55,16.99,14.46,26.24,4.89,11.56,6.95,23.49,4.86,35.99-.76,4.56-2.99,8.03-7.45,9.78-.52,.2-1.12,.31-1.68,.32-12.43,.17-23.41-3.89-33.09-11.56-2.47-1.96-4.76-4.13-7.13-6.21Z"/>
  <path class="cls-1" d="M397.55,319.23c13.1,13.61,21.05,28.66,26,45.36,4.88,16.46,6.41,33.22,3.72,50.25-1.68,10.62-5.12,20.59-11.35,29.47-4.05,5.79-9.1,10.51-15.1,14.24-.78,.48-1.31,.38-1.92-.19-1.32-1.24-1.85-2.88-1.95-4.57-.18-2.91-.18-5.84-.17-8.76,0-1.65,.2-3.3,.29-4.96,.62-11.26-1.96-21.83-6.87-31.9-3.76-7.7-8.54-14.78-13.33-21.85-4.62-6.81-9.25-13.62-13.1-20.92-3.84-7.29-6.42-14.92-7.23-23.2-.81-8.32-1.75-16.62-.75-24.99,.44-3.69,1.26-7.29,3.38-10.44,2.12-3.15,5.12-4.55,8.87-4.42,3.26,.12,6.27,1.16,9.16,2.57,7.96,3.88,14.91,9.18,20.36,14.31Z"/>
  <g>
    <path class="cls-2" d="M237.91,468.62c-3.67-.22-7.09,.34-8.13-.47-.04-.03-.07-.09-.09-.16-.51-1.84-2.67-2.63-4.16-1.43-.16,.13-.33,.26-.49,.37-.51,.38-1.15,.54-1.78,.48-.27-.03-.53-.05-.77-.07-1.8-.17-2.87-2.08-2.09-3.72,11.46-23.97-8.06-55.75-20.36-74.88-18-28-19.99-45.14-18.83-76.4,.05-1.4,1.19-2.51,2.59-2.52,5.36-.04,8.68-.12,12.87-.27,1.62-.06,2.91,1.35,2.69,2.96-1.75,12.71-3.82,26.89-1.26,39.79,.5,2.5,3.84,2.88,4.95,.58,.01-.02,.02-.04,.03-.07,1.34-2.73,3.74-3.86,6.54-3.9,5.08-.08,8.38,2.68,15.29,13.92,9.98,16.23,19.26,33.41,26.22,50.66,6.71,16.62,8.76,28.36,2.79,43.39-4.65,11.7-10.18,12.1-16.02,11.76Zm3.13-51.88c-3.5-9.02-7.75-17.99-11.34-24.61-6.81-12.54-11.75-18.41-15.45-18.45-3.75-.04-4.04,5.61-.11,17.67,2.11,6.42,8.19,16.24,11.91,25.38,4.37,10.76,5.25,16.3,7,20,1.75,3.7,5.02,7.04,8,7,2.59-.03,4-3.37,4-7,0-5,.37-8.73-4-20Z"/>
    <path class="cls-2" d="M293.99,433.29c1.7,.06,3.13,1.31,3.38,2.99,.67,4.52,.86,11.67-1.2,18.04-4.07,12.7-8.64,14.48-14.95,14.03-5.21-.37-10.53-.86-11.93-10.64-2.27-15.89-6.77-29.37-13-44.4-7.27-17.54-17.08-36.18-19.77-55.05-1.55-10.86,2.2-13.9,6.39-13.96,2.49-.04,4.76,1.01,7.64,3.96,2.87,2.95,6.48,8.23,12.16,17.23,6.16,9.77,12.02,19.88,17.45,29.96,2.94,5.45,6.52,8.38,9.16,16.3,1,3,0,9-2.33,9.9-3.74,1.44-6.14-.05-11.11-.18-2.49-.07-3.97,1.82-3.56,4.28,1,6,1.45,7.89,3.31,12.72,1.38,3.67,3.69,6.28,6.69,7.28,1.87,.62,9.01,4.01,8-5-.02-.2,.02-2.82-.04-3.73-.13-2.08,1.57-3.81,3.65-3.74,.02,0,.04,0,.06,0Zm-25.39-34.73c2.74,.11,4.56-2.81,3.26-5.22-4.03-7.45-7.85-13.44-10.96-17.61-3.84-5.15-6.49-7.56-8.3-7.58-1.97-.02-2.32,2.49-.8,7.85,1.41,4.97,4.18,11.85,7.8,20.2,.54,1.25,1.76,2.08,3.12,2.14,2.28,.08,4.11,.16,5.87,.23Z"/>
    <path class="cls-2" d="M269.24,359.13c-2.53-10.65,2-13.24,9.42-13.03,4.83,.14,9.66,1.69,15.12,6.17,9.84,8.08,16.05,20.94,22.47,32,8.46,16.09,14.65,28,20.08,45.48,.01,.03,4,12,4,18,0,2.42,0,7.74,.11,9.69,.09,1.75,.38,3.17,.9,4.25,.11,.24,.16,.5,.12,.76-.26,1.57-.43,2.55-.6,3.53-.09,.54-.53,.94-1.07,.99-4.52,.43-7.25,.67-11.55,1.01-.72,.06-1.33-.53-1.31-1.25,.06-1.67,.29-3.81,.55-5.92,.07-.53,.14-1.08,.21-1.66,.17-1.34-1.66-1.91-2.27-.7-1.67,3.28-3.45,6.39-5.1,8.36-3.27,3.9-6.03,3.64-9,3.74-3.79,.13-6.69,.42-7.3-6.42-.6-6.84-.67-22.35-2.11-27.97-1.86-7.29-5.49-16.73-5.84-25.77-.18-4.92,1.6-7.37,5.07-9.18,1.24-.62,1.87-.93,3.16-1.56,1.74-.88,2.8-1.99,3.09-3.34,.56-2.34-.46-6.03-3.13-11.01-3.25-6.07-6.13-10.13-8.63-12.34s-4.97-3.3-7.41-3.34c-2.74-.05-3.52,2.01-2.25,6.37,.84,2.9,2.48,6.82,4.78,11.73,.38,.81-.23,1.74-1.12,1.72-2.65-.06-4.38-.12-6.81-.21-.44-.02-.84-.27-1.04-.67-4.65-9.45-9.86-19.16-12.55-29.42Zm50.01,85.95c2.41-.24,4.57-.71,6.08-5.33,.42-1.28,1.44-8.39-3-18-.45-.97-4.45-11.91-5-11,0,0-4.25,.37-6,3-2,3-2.39,6.02-2,10,.5,5.07,2,9,4,13,1.59,3.17,4.4,8.48,5.92,8.33Z"/>
    <path class="cls-2" d="M338.96,371.11c-3.51-.03-3.18,5,1.49,15.96,2.48,5.79,6.31,13.39,9.75,21.66,9.16,21.05,12.46,31.37,9.51,54.37-.12,.94-.88,1.68-1.82,1.79-2.89,.33-5.02,.57-7.92,.87-1.31,.14-2.43-.97-2.27-2.28,5.18-42.85-21.85-73.43-38.6-111.47-.61-1.38,.45-2.93,1.96-2.88,2.39,.07,4.29,.12,6.8,.19,.88,.03,1.65,.61,1.91,1.44,.24,.78,.5,1.53,.79,2.28,.75,1.96,3.55,1.67,3.94-.39,0-.02,0-.04,.01-.06,.76-3.79,3.56-4.9,6.6-4.78,3.81,.15,9.03,4.28,12,6.66,12.58,10.08,21.8,26.99,29.88,40.78,12.59,21.5,19.23,38.43,16.25,63.47-.09,1.07-3.36,1.99-11.78,3.63-1.36,.26-2.6-.87-2.45-2.25,2.8-26.05-2.8-35.92-13.86-60.8-3.76-7.41-7.52-13.35-10.37-17.37-5.2-7.34-8.94-10.76-11.8-10.79Z"/>
  </g>
</svg>