<?xml version="1.0" encoding="UTF-8"?>
<svg id="Layer_1" data-name="Layer 1" xmlns="http://www.w3.org/2000/svg" viewBox="0 0 560 560">
  <defs>
    <style>
      .cls-1 {
        fill: #fbf6e4;
      }

      .cls-2 {
        fill: #442102;
      }

      .cls-3 {
        fill: #f5e5a9;
        stroke: #442102;
        stroke-miterlimit: 10;
        stroke-width: 2px;
      }
    </style>
  </defs>
  <rect class="cls-1" x="-20" y="-4" width="587" height="575"/>
  <g>
    <path class="cls-2" d="M86.13,380.77c-13.78-14.84-23.87-31.91-31.46-50.53-9.73-23.87-14.99-48.71-15.65-74.48-.42-16.56,1-32.96,6.4-48.71,4.59-13.39,10.46-26.23,19.36-37.42,5.17-6.49,11.25-11.96,19.47-14.18,3.37-.91,6.98-.91,10.49-1.32,1.31-.16,1.85,.44,2.19,1.71,2.18,8.21,2.75,16.59,2.82,25.04,.08,9.75-.12,19.51,.35,29.24,.63,13.17,5.19,25.35,10.56,37.23,6.93,15.33,15.98,29.46,24.86,43.68,8.72,13.96,17.36,27.96,23.79,43.17,8.04,19.01,11.44,38.65,8,59.21-1.26,7.51-4.92,13.22-12.25,16.09-.86,.34-1.84,.51-2.76,.52-20.45,.27-38.51-6.4-54.44-19.02-4.06-3.22-7.83-6.8-11.73-10.22Z"/>
    <path class="cls-2" d="M469.99,169.37c21.55,22.4,34.63,47.15,42.77,74.62,8.03,27.09,10.54,54.66,6.12,82.67-2.76,17.47-8.43,33.87-18.67,48.49-6.67,9.52-14.96,17.3-24.84,23.42-1.28,.79-2.16,.63-3.16-.31-2.17-2.04-3.04-4.74-3.21-7.52-.29-4.79-.29-9.61-.27-14.41,.01-2.72,.32-5.44,.47-8.16,1.02-18.53-3.22-35.92-11.31-52.49-6.18-12.67-14.05-24.31-21.94-35.94-7.6-11.21-15.23-22.4-21.55-34.42-6.32-12-10.57-24.55-11.89-38.16-1.34-13.7-2.89-27.35-1.23-41.11,.73-6.07,2.07-11.99,5.57-17.18,3.48-5.18,8.42-7.49,14.59-7.27,5.36,.19,10.32,1.91,15.07,4.23,13.09,6.39,24.53,15.11,33.49,23.54Z"/>
    <g>
      <path class="cls-3" d="M207.34,415.15c-6.03-.35-11.67,.56-13.37-.78-.07-.05-.12-.14-.15-.26-.84-3.03-4.4-4.33-6.84-2.36-.27,.22-.54,.42-.8,.62-.84,.62-1.9,.89-2.94,.79-.45-.04-.87-.08-1.27-.12-2.96-.29-4.72-3.43-3.44-6.11,18.85-39.44-13.27-91.72-33.5-123.2-29.61-46.07-32.9-74.27-30.98-125.7,.09-2.3,1.96-4.13,4.26-4.15,8.81-.07,14.28-.19,21.18-.45,2.67-.1,4.79,2.23,4.42,4.87-2.88,20.91-6.29,44.24-2.06,65.46,.82,4.12,6.32,4.73,8.14,.95,.02-.04,.04-.07,.05-.11,2.2-4.49,6.15-6.35,10.77-6.42,8.35-.13,13.78,4.41,25.16,22.91,16.42,26.71,31.68,54.97,43.13,83.34,11.03,27.34,14.41,46.66,4.59,71.38-7.65,19.25-16.75,19.91-26.35,19.34Zm5.15-85.35c-5.75-14.83-12.75-29.6-18.66-40.49-11.21-20.63-19.33-30.29-25.42-30.35-6.17-.06-6.65,9.23-.19,29.08,3.47,10.56,13.47,26.71,19.59,41.76,7.2,17.71,8.64,26.82,11.52,32.9,2.87,6.09,8.25,11.58,13.16,11.52,4.25-.05,6.58-5.55,6.58-11.52,0-8.23,.61-14.36-6.58-32.9Z"/>
      <path class="cls-3" d="M299.61,357.02c2.8,.09,5.15,2.15,5.56,4.92,1.1,7.44,1.42,19.2-1.98,29.68-6.7,20.89-14.21,23.82-24.6,23.08-8.58-.61-17.32-1.41-19.62-17.5-3.74-26.14-11.14-48.32-21.39-73.04-11.96-28.86-28.1-59.52-32.52-90.57-2.54-17.87,3.62-22.86,10.52-22.98,4.1-.07,7.84,1.67,12.56,6.52,4.72,4.86,10.66,13.53,20.01,28.35,10.14,16.07,19.77,32.71,28.71,49.29,4.84,8.97,10.73,13.78,15.08,26.82,1.65,4.94,0,14.81-3.83,16.28-6.15,2.37-10.11-.07-18.28-.29-4.1-.11-6.53,2.99-5.85,7.05,1.65,9.87,2.38,12.98,5.44,20.93,2.27,6.03,6.07,10.33,11.01,11.98,3.07,1.02,14.83,6.6,13.16-8.23-.04-.33,.03-4.64-.06-6.13-.22-3.42,2.58-6.27,6-6.16,.03,0,.06,0,.09,0Zm-41.77-57.14c4.51,.19,7.51-4.62,5.36-8.59-6.63-12.26-12.91-22.11-18.02-28.98-6.32-8.48-10.67-12.44-13.65-12.47-3.24-.04-3.82,4.09-1.32,12.92,2.32,8.17,6.88,19.5,12.83,33.23,.89,2.06,2.89,3.43,5.13,3.51,3.75,.14,6.77,.26,9.66,.37Z"/>
      <path class="cls-3" d="M258.88,235.02c-4.16-17.52,3.3-21.78,15.5-21.43,7.94,.23,15.9,2.78,24.88,10.15,16.19,13.3,26.4,34.45,36.96,52.64,13.91,26.48,24.1,46.07,33.04,74.83,.02,.05,6.57,19.74,6.58,29.61,0,3.98,.02,12.74,.18,15.94,.14,2.87,.63,5.22,1.48,6.99,.19,.39,.27,.83,.2,1.26-.44,2.59-.71,4.2-.99,5.81-.15,.88-.88,1.55-1.77,1.63-7.44,.71-11.92,1.1-19,1.66-1.19,.09-2.2-.87-2.15-2.06,.11-2.75,.47-6.27,.91-9.74,.11-.87,.23-1.78,.35-2.73,.29-2.21-2.72-3.14-3.73-1.15-2.74,5.4-5.68,10.52-8.39,13.75-5.37,6.42-9.92,5.99-14.8,6.15-6.23,.21-11.01,.69-12-10.56-.99-11.25-1.11-36.77-3.47-46.02-3.06-11.99-9.03-27.53-9.62-42.39-.29-8.09,2.62-12.13,8.35-15.11,2.03-1.02,3.08-1.54,5.2-2.57,2.87-1.44,4.61-3.28,5.08-5.49,.92-3.84-.75-9.92-5.14-18.12-5.35-9.98-10.09-16.67-14.19-20.31-4.1-3.64-8.17-5.43-12.19-5.5-4.51-.08-5.79,3.31-3.7,10.48,1.39,4.77,4.09,11.22,7.86,19.3,.62,1.33-.38,2.86-1.85,2.83-4.36-.1-7.21-.19-11.21-.35-.73-.03-1.38-.45-1.71-1.1-7.65-15.55-16.22-31.53-20.65-48.4Zm82.28,141.41c3.96-.39,7.52-1.17,10-8.76,.69-2.1,2.37-13.8-4.94-29.61-.73-1.59-7.32-19.59-8.23-18.1,0,0-6.99,.61-9.87,4.94-3.29,4.94-3.94,9.9-3.29,16.45,.83,8.35,3.29,14.81,6.58,21.39,2.61,5.22,7.24,13.94,9.74,13.7Z"/>
      <path class="cls-3" d="M373.59,254.72c-5.78-.05-5.23,8.23,2.44,26.25,4.08,9.53,10.39,22.03,16.04,35.64,15.07,34.64,20.49,51.61,15.64,89.44-.2,1.55-1.45,2.76-2.99,2.94-4.75,.54-8.25,.93-13.03,1.44-2.16,.23-4-1.6-3.74-3.75,8.53-70.5-35.95-120.8-63.5-183.39-1-2.27,.74-4.81,3.22-4.75,3.94,.11,7.06,.19,11.18,.31,1.44,.04,2.71,1,3.15,2.37,.4,1.28,.83,2.51,1.3,3.74,1.23,3.23,5.85,2.75,6.48-.65,0-.04,.01-.07,.02-.11,1.25-6.23,5.85-8.06,10.86-7.86,6.26,.24,14.86,7.04,19.74,10.95,20.7,16.59,35.87,44.41,49.16,67.09,20.72,35.37,31.63,63.23,26.73,104.41-.15,1.75-5.54,3.27-19.39,5.97-2.24,.44-4.28-1.43-4.03-3.7,4.61-42.85-4.61-59.1-22.8-100.03-6.18-12.19-12.38-21.96-17.06-28.58-8.55-12.08-14.72-17.71-19.42-17.75Z"/>
    </g>
  </g>
</svg>